<svg width="1000" height="600" xmlns="http://www.w3.org/2000/svg" version="1.1"><g transform="translate(50,0)"><text x="-50" y="-7" style="font-size: 10px; font-family: Arial, Helvetica;">null</text><g class="y axis" transform="translate(0,0)" style="font-size: 10px; font-family: Arial, Helvetica;"><g class="tick" transform="translate(0,550)" style="opacity: 1;"><line x2="-6" y2="0" style="shape-rendering: crispEdges; fill: none; stroke: rgb(204, 204, 204);"></line><text dy=".32em" x="-9" y="0" style="text-anchor: end;">0.0</text></g><g class="tick" transform="translate(0,533.1029185867895)" style="opacity: 1;"><line x2="-6" y2="0" style="shape-rendering: crispEdges; fill: none; stroke: rgb(204, 204, 204);"></line><text dy=".32em" x="-9" y="0" style="text-anchor: end;">0.5</text></g><g class="tick" transform="translate(0,516.2058371735791)" style="opacity: 1;"><line x2="-6" y2="0" style="shape-rendering: crispEdges; fill: none; stroke: rgb(204, 204, 204);"></line><text dy=".32em" x="-9" y="0" style="text-anchor: end;">1.0</text></g><g class="tick" transform="translate(0,499.3087557603686)" style="opacity: 1;"><line x2="-6" y2="0" style="shape-rendering: crispEdges; fill: none; stroke: rgb(204, 204, 204);"></line><text dy=".32em" x="-9" y="0" style="text-anchor: end;">1.5</text></g><g class="tick" transform="translate(0,482.4116743471582)" style="opacity: 1;"><line x2="-6" y2="0" style="shape-rendering: crispEdges; fill: none; stroke: rgb(204, 204, 204);"></line><text dy=".32em" x="-9" y="0" style="text-anchor: end;">2.0</text></g><g class="tick" transform="translate(0,465.51459293394777)" style="opacity: 1;"><line x2="-6" y2="0" style="shape-rendering: crispEdges; fill: none; stroke: rgb(204, 204, 204);"></line><text dy=".32em" x="-9" y="0" style="text-anchor: end;">2.5</text></g><g class="tick" transform="translate(0,448.61751152073737)" style="opacity: 1;"><line x2="-6" y2="0" style="shape-rendering: crispEdges; fill: none; stroke: rgb(204, 204, 204);"></line><text dy=".32em" x="-9" y="0" style="text-anchor: end;">3.0</text></g><g class="tick" transform="translate(0,431.72043010752685)" style="opacity: 1;"><line x2="-6" y2="0" style="shape-rendering: crispEdges; fill: none; stroke: rgb(204, 204, 204);"></line><text dy=".32em" x="-9" y="0" style="text-anchor: end;">3.5</text></g><g class="tick" transform="translate(0,414.82334869431645)" style="opacity: 1;"><line x2="-6" y2="0" style="shape-rendering: crispEdges; fill: none; stroke: rgb(204, 204, 204);"></line><text dy=".32em" x="-9" y="0" style="text-anchor: end;">4.0</text></g><g class="tick" transform="translate(0,397.926267281106)" style="opacity: 1;"><line x2="-6" y2="0" style="shape-rendering: crispEdges; fill: none; stroke: rgb(204, 204, 204);"></line><text dy=".32em" x="-9" y="0" style="text-anchor: end;">4.5</text></g><g class="tick" transform="translate(0,381.0291858678955)" style="opacity: 1;"><line x2="-6" y2="0" style="shape-rendering: crispEdges; fill: none; stroke: rgb(204, 204, 204);"></line><text dy=".32em" x="-9" y="0" style="text-anchor: end;">5.0</text></g><g class="tick" transform="translate(0,364.1321044546851)" style="opacity: 1;"><line x2="-6" y2="0" style="shape-rendering: crispEdges; fill: none; stroke: rgb(204, 204, 204);"></line><text dy=".32em" x="-9" y="0" style="text-anchor: end;">5.5</text></g><g class="tick" transform="translate(0,347.2350230414747)" style="opacity: 1;"><line x2="-6" y2="0" style="shape-rendering: crispEdges; fill: none; stroke: rgb(204, 204, 204);"></line><text dy=".32em" x="-9" y="0" style="text-anchor: end;">6.0</text></g><g class="tick" transform="translate(0,330.3379416282642)" style="opacity: 1;"><line x2="-6" y2="0" style="shape-rendering: crispEdges; fill: none; stroke: rgb(204, 204, 204);"></line><text dy=".32em" x="-9" y="0" style="text-anchor: end;">6.5</text></g><g class="tick" transform="translate(0,313.4408602150537)" style="opacity: 1;"><line x2="-6" y2="0" style="shape-rendering: crispEdges; fill: none; stroke: rgb(204, 204, 204);"></line><text dy=".32em" x="-9" y="0" style="text-anchor: end;">7.0</text></g><g class="tick" transform="translate(0,296.5437788018433)" style="opacity: 1;"><line x2="-6" y2="0" style="shape-rendering: crispEdges; fill: none; stroke: rgb(204, 204, 204);"></line><text dy=".32em" x="-9" y="0" style="text-anchor: end;">7.5</text></g><g class="tick" transform="translate(0,279.64669738863284)" style="opacity: 1;"><line x2="-6" y2="0" style="shape-rendering: crispEdges; fill: none; stroke: rgb(204, 204, 204);"></line><text dy=".32em" x="-9" y="0" style="text-anchor: end;">8.0</text></g><g class="tick" transform="translate(0,262.74961597542244)" style="opacity: 1;"><line x2="-6" y2="0" style="shape-rendering: crispEdges; fill: none; stroke: rgb(204, 204, 204);"></line><text dy=".32em" x="-9" y="0" style="text-anchor: end;">8.5</text></g><g class="tick" transform="translate(0,245.85253456221196)" style="opacity: 1;"><line x2="-6" y2="0" style="shape-rendering: crispEdges; fill: none; stroke: rgb(204, 204, 204);"></line><text dy=".32em" x="-9" y="0" style="text-anchor: end;">9.0</text></g><g class="tick" transform="translate(0,228.95545314900147)" style="opacity: 1;"><line x2="-6" y2="0" style="shape-rendering: crispEdges; fill: none; stroke: rgb(204, 204, 204);"></line><text dy=".32em" x="-9" y="0" style="text-anchor: end;">9.5</text></g><g class="tick" transform="translate(0,212.05837173579107)" style="opacity: 1;"><line x2="-6" y2="0" style="shape-rendering: crispEdges; fill: none; stroke: rgb(204, 204, 204);"></line><text dy=".32em" x="-9" y="0" style="text-anchor: end;">10.0</text></g><g class="tick" transform="translate(0,195.16129032258058)" style="opacity: 1;"><line x2="-6" y2="0" style="shape-rendering: crispEdges; fill: none; stroke: rgb(204, 204, 204);"></line><text dy=".32em" x="-9" y="0" style="text-anchor: end;">10.5</text></g><g class="tick" transform="translate(0,178.26420890937018)" style="opacity: 1;"><line x2="-6" y2="0" style="shape-rendering: crispEdges; fill: none; stroke: rgb(204, 204, 204);"></line><text dy=".32em" x="-9" y="0" style="text-anchor: end;">11.0</text></g><g class="tick" transform="translate(0,161.3671274961597)" style="opacity: 1;"><line x2="-6" y2="0" style="shape-rendering: crispEdges; fill: none; stroke: rgb(204, 204, 204);"></line><text dy=".32em" x="-9" y="0" style="text-anchor: end;">11.5</text></g><g class="tick" transform="translate(0,144.4700460829493)" style="opacity: 1;"><line x2="-6" y2="0" style="shape-rendering: crispEdges; fill: none; stroke: rgb(204, 204, 204);"></line><text dy=".32em" x="-9" y="0" style="text-anchor: end;">12.0</text></g><g class="tick" transform="translate(0,127.57296466973882)" style="opacity: 1;"><line x2="-6" y2="0" style="shape-rendering: crispEdges; fill: none; stroke: rgb(204, 204, 204);"></line><text dy=".32em" x="-9" y="0" style="text-anchor: end;">12.5</text></g><g class="tick" transform="translate(0,110.67588325652841)" style="opacity: 1;"><line x2="-6" y2="0" style="shape-rendering: crispEdges; fill: none; stroke: rgb(204, 204, 204);"></line><text dy=".32em" x="-9" y="0" style="text-anchor: end;">13.0</text></g><g class="tick" transform="translate(0,93.77880184331794)" style="opacity: 1;"><line x2="-6" y2="0" style="shape-rendering: crispEdges; fill: none; stroke: rgb(204, 204, 204);"></line><text dy=".32em" x="-9" y="0" style="text-anchor: end;">13.5</text></g><g class="tick" transform="translate(0,76.88172043010746)" style="opacity: 1;"><line x2="-6" y2="0" style="shape-rendering: crispEdges; fill: none; stroke: rgb(204, 204, 204);"></line><text dy=".32em" x="-9" y="0" style="text-anchor: end;">14.0</text></g><g class="tick" transform="translate(0,59.98463901689705)" style="opacity: 1;"><line x2="-6" y2="0" style="shape-rendering: crispEdges; fill: none; stroke: rgb(204, 204, 204);"></line><text dy=".32em" x="-9" y="0" style="text-anchor: end;">14.5</text></g><g class="tick" transform="translate(0,43.08755760368657)" style="opacity: 1;"><line x2="-6" y2="0" style="shape-rendering: crispEdges; fill: none; stroke: rgb(204, 204, 204);"></line><text dy=".32em" x="-9" y="0" style="text-anchor: end;">15.0</text></g><g class="tick" transform="translate(0,26.190476190476158)" style="opacity: 1;"><line x2="-6" y2="0" style="shape-rendering: crispEdges; fill: none; stroke: rgb(204, 204, 204);"></line><text dy=".32em" x="-9" y="0" style="text-anchor: end;">15.5</text></g><g class="tick" transform="translate(0,9.293394777265684)" style="opacity: 1;"><line x2="-6" y2="0" style="shape-rendering: crispEdges; fill: none; stroke: rgb(204, 204, 204);"></line><text dy=".32em" x="-9" y="0" style="text-anchor: end;">16.0</text></g><path class="domain" d="M-6,0H0V550H-6" style="shape-rendering: crispEdges; fill: none; stroke: rgb(204, 204, 204);"></path></g><rect transform="translate(0,0)" class="bar" x="14" width="25" y="410.4301075268817" height="139.56989247311827" style="fill: rgb(131, 133, 191);"></rect><rect transform="translate(0,0)" class="bar" x="42" width="25" y="98.74654377880181" height="451.2534562211982" style="fill: rgb(50, 47, 137);"></rect><rect transform="translate(0,0)" class="bar" x="70" width="25" y="205.4009216589862" height="344.5990783410138" style="fill: rgb(80, 75, 156);"></rect><rect transform="translate(0,0)" class="bar" x="98" width="25" y="398.29800307219665" height="151.70199692780335" style="fill: rgb(128, 130, 189);"></rect><rect transform="translate(0,0)" class="bar" x="126" width="25" y="334.32565284178185" height="215.67434715821815" style="fill: rgb(113, 111, 178);"></rect><rect transform="translate(0,0)" class="bar" x="154" width="25" y="448.65130568356375" height="101.34869431643625" style="fill: rgb(140, 144, 198);"></rect><rect transform="translate(0,0)" class="bar" x="182" width="25" y="256.8694316436252" height="293.1305683563748" style="fill: rgb(93, 90, 165);"></rect><rect transform="translate(0,0)" class="bar" x="210" width="25" y="208.30721966205832" height="341.6927803379417" style="fill: rgb(81, 76, 156);"></rect><rect transform="translate(0,0)" class="bar" x="238" width="25" y="280.8970814132104" height="269.1029185867896" style="fill: rgb(100, 96, 169);"></rect><rect transform="translate(0,0)" class="bar" x="266" width="25" y="164.13824884792623" height="385.8617511520738" style="fill: rgb(69, 64, 148);"></rect><rect transform="translate(0,0)" class="bar" x="294" width="25" y="332.8049155145929" height="217.1950844854071" style="fill: rgb(112, 111, 178);"></rect><rect transform="translate(0,0)" class="bar" x="322" width="25" y="174.5806451612903" height="375.4193548387097" style="fill: rgb(72, 67, 150);"></rect><rect transform="translate(0,0)" class="bar" x="350" width="25" y="82.05222734254987" height="467.9477726574501" style="fill: rgb(44, 43, 134);"></rect><rect transform="translate(0,0)" class="bar" x="378" width="25" y="342.30107526881716" height="207.69892473118284" style="fill: rgb(115, 113, 180);"></rect><rect transform="translate(0,0)" class="bar" x="406" width="25" y="202.39324116743467" height="347.60675883256533" style="fill: rgb(79, 75, 155);"></rect><rect transform="translate(0,0)" class="bar" x="434" width="25" y="383.0568356374808" height="166.9431643625192" style="fill: rgb(125, 125, 187);"></rect><rect transform="translate(0,0)" class="bar" x="462" width="25" y="481.26267281105993" height="68.73732718894007" style="fill: rgb(148, 154, 204);"></rect><rect transform="translate(0,0)" class="bar" x="490" width="25" y="388.058371735791" height="161.941628264209" style="fill: rgb(126, 127, 188);"></rect><rect transform="translate(0,0)" class="bar" x="518" width="25" y="0" height="550" style="fill: #ff0000;"></rect><rect transform="translate(0,0)" class="bar" x="546" width="25" y="203.98156682027644" height="346.01843317972356" style="fill: rgb(80, 75, 155);"></rect><rect transform="translate(0,0)" class="bar" x="574" width="25" y="471.0230414746544" height="78.9769585253456" style="fill: rgb(146, 151, 202);"></rect><rect transform="translate(0,0)" class="bar" x="602" width="25" y="262.4116743471582" height="287.5883256528418" style="fill: rgb(95, 91, 166);"></rect><rect transform="translate(0,0)" class="bar" x="630" width="25" y="297.45622119815664" height="252.54377880184336" style="fill: rgb(104, 101, 172);"></rect><rect transform="translate(0,0)" class="bar" x="658" width="25" y="367.0384024577573" height="182.9615975422427" style="fill: rgb(121, 121, 184);"></rect><rect transform="translate(0,0)" class="bar" x="686" width="25" y="353.5207373271889" height="196.4792626728111" style="fill: rgb(117, 117, 181);"></rect><rect transform="translate(0,0)" class="bar" x="714" width="25" y="386.94316436251916" height="163.05683563748084" style="fill: rgb(125, 126, 187);"></rect><rect transform="translate(0,0)" class="bar" x="742" width="25" y="274.4086021505376" height="275.5913978494624" style="fill: rgb(98, 94, 168);"></rect><rect transform="translate(0,0)" class="bar" x="770" width="25" y="78.4700460829493" height="471.5299539170507" style="fill: rgb(43, 42, 134);"></rect><rect transform="translate(0,0)" class="bar" x="798" width="25" y="306.85099846390165" height="243.14900153609835" style="fill: rgb(106, 103, 173);"></rect><rect transform="translate(0,0)" class="bar" x="826" width="25" y="151.12749615975417" height="398.8725038402458" style="fill: rgb(66, 61, 146);"></rect><rect transform="translate(0,0)" class="bar" x="854" width="25" y="289.85253456221193" height="260.14746543778807" style="fill: rgb(102, 99, 170);"></rect><rect transform="translate(0,0)" class="bar" x="882" width="25" y="274.8479262672811" height="275.1520737327189" style="fill: rgb(98, 95, 168);"></rect><rect transform="translate(0,0)" class="bar" x="910" width="25" y="315.3333333333333" height="234.66666666666669" style="fill: rgb(108, 106, 175);"></rect></g><g class="x axis" transform="translate(50,550)" style="font-size: 10px; font-family: Arial, Helvetica;"><g class="tick" transform="translate(26.5,0)" style="opacity: 1;"><line y2="6" x2="0" style="shape-rendering: crispEdges; fill: none; stroke: rgb(204, 204, 204);"></line><text dy=".71em" y="9" x="0" style="text-anchor: middle;">AUS</text></g><g class="tick" transform="translate(54.5,0)" style="opacity: 1;"><line y2="6" x2="0" style="shape-rendering: crispEdges; fill: none; stroke: rgb(204, 204, 204);"></line><text dy=".71em" y="9" x="0" style="text-anchor: middle;">AUT</text></g><g class="tick" transform="translate(82.5,0)" style="opacity: 1;"><line y2="6" x2="0" style="shape-rendering: crispEdges; fill: none; stroke: rgb(204, 204, 204);"></line><text dy=".71em" y="9" x="0" style="text-anchor: middle;">BEL</text></g><g class="tick" transform="translate(110.5,0)" style="opacity: 1;"><line y2="6" x2="0" style="shape-rendering: crispEdges; fill: none; stroke: rgb(204, 204, 204);"></line><text dy=".71em" y="9" x="0" style="text-anchor: middle;">CAN</text></g><g class="tick" transform="translate(138.5,0)" style="opacity: 1;"><line y2="6" x2="0" style="shape-rendering: crispEdges; fill: none; stroke: rgb(204, 204, 204);"></line><text dy=".71em" y="9" x="0" style="text-anchor: middle;">CHE</text></g><g class="tick" transform="translate(166.5,0)" style="opacity: 1;"><line y2="6" x2="0" style="shape-rendering: crispEdges; fill: none; stroke: rgb(204, 204, 204);"></line><text dy=".71em" y="9" x="0" style="text-anchor: middle;">CHL</text></g><g class="tick" transform="translate(194.5,0)" style="opacity: 1;"><line y2="6" x2="0" style="shape-rendering: crispEdges; fill: none; stroke: rgb(204, 204, 204);"></line><text dy=".71em" y="9" x="0" style="text-anchor: middle;">CZE</text></g><g class="tick" transform="translate(222.5,0)" style="opacity: 1;"><line y2="6" x2="0" style="shape-rendering: crispEdges; fill: none; stroke: rgb(204, 204, 204);"></line><text dy=".71em" y="9" x="0" style="text-anchor: middle;">DEU</text></g><g class="tick" transform="translate(250.5,0)" style="opacity: 1;"><line y2="6" x2="0" style="shape-rendering: crispEdges; fill: none; stroke: rgb(204, 204, 204);"></line><text dy=".71em" y="9" x="0" style="text-anchor: middle;">DNK</text></g><g class="tick" transform="translate(278.5,0)" style="opacity: 1;"><line y2="6" x2="0" style="shape-rendering: crispEdges; fill: none; stroke: rgb(204, 204, 204);"></line><text dy=".71em" y="9" x="0" style="text-anchor: middle;">ESP</text></g><g class="tick" transform="translate(306.5,0)" style="opacity: 1;"><line y2="6" x2="0" style="shape-rendering: crispEdges; fill: none; stroke: rgb(204, 204, 204);"></line><text dy=".71em" y="9" x="0" style="text-anchor: middle;">EST</text></g><g class="tick" transform="translate(334.5,0)" style="opacity: 1;"><line y2="6" x2="0" style="shape-rendering: crispEdges; fill: none; stroke: rgb(204, 204, 204);"></line><text dy=".71em" y="9" x="0" style="text-anchor: middle;">FIN</text></g><g class="tick" transform="translate(362.5,0)" style="opacity: 1;"><line y2="6" x2="0" style="shape-rendering: crispEdges; fill: none; stroke: rgb(204, 204, 204);"></line><text dy=".71em" y="9" x="0" style="text-anchor: middle;">FRA</text></g><g class="tick" transform="translate(390.5,0)" style="opacity: 1;"><line y2="6" x2="0" style="shape-rendering: crispEdges; fill: none; stroke: rgb(204, 204, 204);"></line><text dy=".71em" y="9" x="0" style="text-anchor: middle;">GBR</text></g><g class="tick" transform="translate(418.5,0)" style="opacity: 1;"><line y2="6" x2="0" style="shape-rendering: crispEdges; fill: none; stroke: rgb(204, 204, 204);"></line><text dy=".71em" y="9" x="0" style="text-anchor: middle;">HUN</text></g><g class="tick" transform="translate(446.5,0)" style="opacity: 1;"><line y2="6" x2="0" style="shape-rendering: crispEdges; fill: none; stroke: rgb(204, 204, 204);"></line><text dy=".71em" y="9" x="0" style="text-anchor: middle;">IRL</text></g><g class="tick" transform="translate(474.5,0)" style="opacity: 1;"><line y2="6" x2="0" style="shape-rendering: crispEdges; fill: none; stroke: rgb(204, 204, 204);"></line><text dy=".71em" y="9" x="0" style="text-anchor: middle;">ISL</text></g><g class="tick" transform="translate(502.5,0)" style="opacity: 1;"><line y2="6" x2="0" style="shape-rendering: crispEdges; fill: none; stroke: rgb(204, 204, 204);"></line><text dy=".71em" y="9" x="0" style="text-anchor: middle;">ISR</text></g><g class="tick" transform="translate(530.5,0)" style="opacity: 1;"><line y2="6" x2="0" style="shape-rendering: crispEdges; fill: none; stroke: rgb(204, 204, 204);"></line><text dy=".71em" y="9" x="0" style="text-anchor: middle;">ITA</text></g><g class="tick" transform="translate(558.5,0)" style="opacity: 1;"><line y2="6" x2="0" style="shape-rendering: crispEdges; fill: none; stroke: rgb(204, 204, 204);"></line><text dy=".71em" y="9" x="0" style="text-anchor: middle;">JPN</text></g><g class="tick" transform="translate(586.5,0)" style="opacity: 1;"><line y2="6" x2="0" style="shape-rendering: crispEdges; fill: none; stroke: rgb(204, 204, 204);"></line><text dy=".71em" y="9" x="0" style="text-anchor: middle;">KOR</text></g><g class="tick" transform="translate(614.5,0)" style="opacity: 1;"><line y2="6" x2="0" style="shape-rendering: crispEdges; fill: none; stroke: rgb(204, 204, 204);"></line><text dy=".71em" y="9" x="0" style="text-anchor: middle;">LUX</text></g><g class="tick" transform="translate(642.5,0)" style="opacity: 1;"><line y2="6" x2="0" style="shape-rendering: crispEdges; fill: none; stroke: rgb(204, 204, 204);"></line><text dy=".71em" y="9" x="0" style="text-anchor: middle;">LVA</text></g><g class="tick" transform="translate(670.5,0)" style="opacity: 1;"><line y2="6" x2="0" style="shape-rendering: crispEdges; fill: none; stroke: rgb(204, 204, 204);"></line><text dy=".71em" y="9" x="0" style="text-anchor: middle;">NLD</text></g><g class="tick" transform="translate(698.5,0)" style="opacity: 1;"><line y2="6" x2="0" style="shape-rendering: crispEdges; fill: none; stroke: rgb(204, 204, 204);"></line><text dy=".71em" y="9" x="0" style="text-anchor: middle;">NOR</text></g><g class="tick" transform="translate(726.5,0)" style="opacity: 1;"><line y2="6" x2="0" style="shape-rendering: crispEdges; fill: none; stroke: rgb(204, 204, 204);"></line><text dy=".71em" y="9" x="0" style="text-anchor: middle;">NZL</text></g><g class="tick" transform="translate(754.5,0)" style="opacity: 1;"><line y2="6" x2="0" style="shape-rendering: crispEdges; fill: none; stroke: rgb(204, 204, 204);"></line><text dy=".71em" y="9" x="0" style="text-anchor: middle;">OECD</text></g><g class="tick" transform="translate(782.5,0)" style="opacity: 1;"><line y2="6" x2="0" style="shape-rendering: crispEdges; fill: none; stroke: rgb(204, 204, 204);"></line><text dy=".71em" y="9" x="0" style="text-anchor: middle;">PRT</text></g><g class="tick" transform="translate(810.5,0)" style="opacity: 1;"><line y2="6" x2="0" style="shape-rendering: crispEdges; fill: none; stroke: rgb(204, 204, 204);"></line><text dy=".71em" y="9" x="0" style="text-anchor: middle;">SVK</text></g><g class="tick" transform="translate(838.5,0)" style="opacity: 1;"><line y2="6" x2="0" style="shape-rendering: crispEdges; fill: none; stroke: rgb(204, 204, 204);"></line><text dy=".71em" y="9" x="0" style="text-anchor: middle;">SVN</text></g><g class="tick" transform="translate(866.5,0)" style="opacity: 1;"><line y2="6" x2="0" style="shape-rendering: crispEdges; fill: none; stroke: rgb(204, 204, 204);"></line><text dy=".71em" y="9" x="0" style="text-anchor: middle;">SWE</text></g><g class="tick" transform="translate(894.5,0)" style="opacity: 1;"><line y2="6" x2="0" style="shape-rendering: crispEdges; fill: none; stroke: rgb(204, 204, 204);"></line><text dy=".71em" y="9" x="0" style="text-anchor: middle;">TUR</text></g><g class="tick" transform="translate(922.5,0)" style="opacity: 1;"><line y2="6" x2="0" style="shape-rendering: crispEdges; fill: none; stroke: rgb(204, 204, 204);"></line><text dy=".71em" y="9" x="0" style="text-anchor: middle;">USA</text></g><path class="domain" d="M0,6V0H950V6" style="shape-rendering: crispEdges; fill: none; stroke: rgb(204, 204, 204);"></path></g></svg>
